<svg xmlns="http://www.w3.org/2000/svg" width="40" height="40" viewBox="0 0 40 40">
    <defs>
        <linearGradient id="loongGradDark" x1="0%" y1="0%" x2="100%" y2="100%">
            <stop offset="0%" style="stop-color:#6BA0FF"/>
            <stop offset="100%" style="stop-color:#3A66F0"/>
        </linearGradient>
    </defs>
    <g transform="scale(3.0769)">
        <rect width="13" height="13" rx="3" fill="url(#loongGradDark)"/>
        <path d="M3.5 9.5c.8-1.5 2.2-2.5 3.8-2.8.3-.05.5-.3.4-.6-.1-.3-.4-.4-.7-.3C4.8 6.5 3 8 2.2 10c-.1.3.1.6.4.7.3.1.6-.1.7-.4l.2-.8z" fill="#FFD700"/>
        <circle cx="8.5" cy="4.5" r="1" fill="#FFD700"/>
        <path d="M9.9 5.9 A2.4 2.4 0 1 0 9.9 9.1" fill="none" stroke="#FFFFFF" stroke-width="1.2" stroke-linecap="round"/>
    </g>
</svg>
